Coordinates
version=1
nRows=6
nColumns=63
inDegrees=yes

Units are S.I. units (second, meters, Newtons, ...)
If the header above contains a line with 'inDegrees', this indicates whether rotational values are in degrees (yes) or radians (no).

endheader
time	pelvis_tilt	pelvis_list	pelvis_rotation	pelvis_tx	pelvis_ty	pelvis_tz	hip_flexion_r	hip_adduction_r	hip_rotation_r	knee_angle_r	knee_angle_r_beta	ankle_angle_r	subtalar_angle_r	mtp_angle_r	hip_flexion_l	hip_adduction_l	hip_rotation_l	knee_angle_l	knee_angle_l_beta	ankle_angle_l	subtalar_angle_l	mtp_angle_l	L5_S1_Flex_Ext	L5_S1_Lat_Bending	L5_S1_axial_rotation	L4_L5_Flex_Ext	L4_L5_Lat_Bending	L4_L5_axial_rotation	L3_L4_Flex_Ext	L3_L4_Lat_Bending	L3_L4_axial_rotation	L2_L3_Flex_Ext	L2_L3_Lat_Bending	L2_L3_axial_rotation	L1_L2_Flex_Ext	L1_L2_Lat_Bending	L1_L2_axial_rotation	L1_T12_Flex_Ext	L1_T12_Lat_Bending	L1_T12_axial_rotation	Abs_r3	Abs_r2	Abs_r1	Abs_t1	Abs_t2	neck_flexion	neck_bending	neck_rotation	arm_flex_r	arm_add_r	arm_rot_r	elbow_flex_r	pro_sup_r	wrist_flex_r	wrist_dev_r	arm_flex_l	arm_add_l	arm_rot_l	elbow_flex_l	pro_sup_l	wrist_flex_l	wrist_dev_l
      0.00000000	      0.09977478	     -5.15257107	     83.74773288	     -0.00593109	      0.99310054	      0.56593388	      4.34034637	     -0.07715729	      9.79806567	      2.53866049	      0.04430798	     20.27105246	      6.63032894	      0.00000000	      4.32306533	     -2.95172316	     -3.13659304	      2.26401293	      0.03951448	     25.39158261	      5.65115826	      0.00000000	      0.19337806	      0.34338674	      1.60663128	      0.35912240	      0.45670436	      1.70704573	      0.31770082	      0.83491051	      1.70704573	      0.22101179	      0.83491051	      1.40580237	      0.17957087	      0.70023423	      1.30538791	      0.11049622	      0.53190606	      1.20497346	      1.38128015	      3.88445944	      8.93560119	      0.00000000	      0.00000000	     28.12458963	      1.76861517	      6.60294273	     12.11811424	    -47.79168266	     91.77675574	     10.56335410	      4.80938943	     -9.76497745	     -1.47035559	     -3.64057470	    -37.53750161	    -30.18511772	      7.72619658	     24.08558378	     -4.75940729	      7.47918398
      0.01694915	      0.38762415	     -4.59977379	     85.74489587	     -0.00738365	      0.99483352	      0.56168918	      2.90476223	      0.02760654	     11.35592446	      1.20041300	      0.02095116	     19.20692613	      1.97634447	      0.00000000	      3.54308648	     -2.95304820	      2.76773725	      2.16241725	      0.03774130	     24.54966363	      0.26210139	      0.00000000	      0.17290904	      0.36169335	      1.23220509	      0.32110938	      0.48105216	      1.30921791	      0.28407227	      0.87942121	      1.30921791	      0.19761774	      0.87942121	      1.07817946	      0.16056334	      0.73756508	      1.00116664	      0.09880023	      0.56026300	      0.92415382	      1.23507200	      4.09154753	      6.85315507	      0.00000000	      0.00000000	     28.08340328	      1.91150750	      7.40258761	     12.67189221	    -46.15252321	     95.27866516	     10.02018908	      5.27279931	     -8.93335908	     -2.02767268	      1.61162524	    -34.42758095	    -71.24478387	     10.14148487	     12.74530362	     -4.21252537	     13.01467729
      0.03389831	      0.64127700	     -4.17633731	     87.12406521	     -0.00870444	      0.99634503	      0.55943382	      2.14732428	      0.16677831	     10.42857940	      0.77671571	      0.01355625	     18.94466154	      1.29408257	      0.00000000	      3.10809236	     -3.09100566	      4.02517021	      2.34499882	      0.04092795	     24.50665324	      0.41473809	      0.00000000	      0.14006592	      0.37989361	      0.94850953	      0.26011643	      0.50525851	      1.00779137	      0.23011431	      0.92367333	      1.00779137	      0.16008134	      0.92367333	      0.82994583	      0.13006522	      0.77467906	      0.77066399	      0.08003367	      0.58845521	      0.71138214	      1.00047689	      4.29743255	      5.27532543	      0.00000000	      0.00000000	     28.02788466	      2.10076374	      7.78154498	     13.18863414	    -44.27081922	     97.64731869	      9.58642542	      7.33351218	     -7.84429556	     -2.98225632	      3.55166719	    -32.97156873	    -70.90397971	      9.98479817	     13.68389593	     -2.85008290	     12.16219047
      0.05084746	      0.98901160	     -4.24463361	     88.26666154	     -0.01039683	      0.99712765	      0.55717857	      1.98718163	      0.44297280	      9.79514415	      0.58620317	      0.01023118	     18.65718258	      0.44513163	      0.00000000	      3.06370047	     -3.27036637	      8.56689058	      2.24501744	      0.03918295	     23.40161247	     -4.54617824	      0.00000000	      0.16161694	      0.42471415	      0.48783038	      0.30013882	      0.56486982	      0.51831978	      0.26552047	      1.03264999	      0.51831978	      0.18471200	      1.03264999	      0.42685158	      0.15007749	      0.86607710	      0.39636218	      0.09234792	      0.65788222	      0.36587279	      1.15441366	      4.80445145	      2.71316623	      0.00000000	      0.00000000	     28.00668571	      3.41431307	     10.13636138	     15.33889240	    -41.63992647	    109.67856569	      8.36299946	      4.86728375	     -6.51458445	     -3.92903497	     -2.30052958	    -38.46925163	     33.53328188	     10.63087329	     14.89102495	     -9.07044209	      1.11015988
      0.06779661	      1.05583824	     -4.03373487	     89.18156092	     -0.01123486	      0.99778549	      0.55696058	      1.69864677	      0.47434885	      9.48201670	      0.51269483	      0.00894821	     18.51412671	     -0.48680879	      0.00000000	      2.98311566	     -3.26656107	      9.93464404	      2.42325007	      0.04229369	     23.01230032	     -5.37039224	      0.00000000	      0.13490941	      0.41841608	      0.27656393	      0.25054027	      0.55649338	      0.29384918	      0.22164267	      1.01733685	      0.29384918	      0.15418797	      1.01733685	      0.24199344	      0.12527688	      0.85323406	      0.22470820	      0.07708724	      0.64812650	      0.20742295	      0.96364445	      4.73320634	      1.53816563	      0.00000000	      0.00000000	     27.93283048	      3.75137106	     10.17823196	     15.68894098	    -38.62472698	    120.27567493	      6.39398431	      4.02124420	     -5.01093779	     -5.33644695	      0.15809142	    -37.88559478	     47.02903409	      9.82389205	     24.53824624	    -11.67481568	     -0.04150654
      0.08474576	      1.11086758	     -3.88990661	     89.86974837	     -0.01202974	      0.99822439	      0.55749319	      1.53551921	      0.49574968	      9.07293019	      0.48683004	      0.00849679	     18.44304962	     -0.92534603	      0.00000000	      3.01291763	     -3.26820998	     10.66155808	      2.60443141	      0.04545590	     22.72982311	     -5.57287463	      0.00000000	      0.10773375	      0.41490625	      0.15522130	      0.20007236	      0.55182531	      0.16492263	      0.17699579	      1.00880305	      0.16492263	      0.12312891	      1.00880305	      0.13581863	      0.10004156	      0.84607682	      0.12611730	      0.06155907	      0.64268978	      0.11641597	      0.76953143	      4.69350245	      0.86329428	      0.00000000	      0.00000000	     27.84346992	      4.10423316	     10.08699909	     15.41108547	    -35.52876406	    132.50036677	      3.75638731	      3.48999686	     -3.65164068	     -6.75794366	      2.22663486	    -36.14118060	     51.08893772	      9.17207940	     26.32585940	    -12.12121293	     -1.59800389
